<svg id="Layer_1" data-name="Layer 1" xmlns="http://www.w3.org/2000/svg" viewBox="0 0 345.99 345.99"><defs><style>.cls-1{opacity:0.37;}.cls-2,.cls-3{fill:#fff;}.cls-2{fill-rule:evenodd;}</style></defs><title>icon</title><g class="cls-1"><rect width="345.99" height="345.99" rx="28.69" ry="28.69"/></g><path class="cls-2" d="M155.39,136.51v-2.42c5.12-5,9.46-12.45,12.35-20.76a1.86,1.86,0,0,0,1,.58c2.13.35,4.56-3.64,5.44-8.92s-.14-9.85-2.26-10.2a1.67,1.67,0,0,0-.45,0h0c1-17.39-5.72-33.53-25.43-35.48q-2-.2-4.12-.2-1.07,0-2.1,0c-21.28,1-28.47,17.69-27.44,35.67h0a1.67,1.67,0,0,0-.69,0c-2.13.35-3.14,4.92-2.26,10.2s3.31,9.27,5.44,8.92a2,2,0,0,0,1.2-.77c2.85,8.26,7.13,15.68,12.19,20.71v2.46L142,147.94Z"/><path class="cls-2" d="M205.4,229.43c-3.66-29-7.15-58.83-10-71.41a7.85,7.85,0,0,0-.4-1.25l0-.08c-3.92-8.48-21.84-12.77-33.38-16.37l.34.22L149.8,163.4,142,147.94l-7.84,15.46L122,140.81c-9.06,3.09-21.58,5.88-28.27,10.82A6.7,6.7,0,0,0,90,155.83a7.91,7.91,0,0,0-.58,1.44l.09.19c0,.11-.06.22-.09.34-3,13.59-6.33,43.37-9.82,71.19-.89,7.13,6.53,10.19,8.93,10.81,4.29,1.11,8.28,1.94,12.4,2.65v0c3.42.69,7.38,1.26,11.69,1.71l1.36.19v0q2.67.26,5.48.46c6.72.53,13.74.82,20.78.86h3.39c8.94,0,17.83-.47,26.13-1.3v0l.49-.07c1.44-.15,2.87-.3,4.27-.47l0-.09c7.7-1,14.28-2,21.73-4.24C198.18,238.92,206.19,235.68,205.4,229.43Z"/><path class="cls-2" d="M232.75,117.37v-1.85c3.93-3.83,7.15-10.84,7.44-10.79,1.63.27,10.37,1.69,9.08-12.08-.38-4.09-2-36.81-23.68-34.52-1,.11-2.06-.15-3.16-.15a13.12,13.12,0,0,1-1.61,0c-20-2.56-22.56,31.14-23.32,35.17-2.59,13.78,5.59,13.12,7.22,12.85.35-.06,3.35,5.44,7.23,9.3v1.88l10.49,8.93Z"/><path class="cls-2" d="M271.12,188.67c-2.81-22.24-5.48-45.14-7.66-54.8a6,6,0,0,0-.31-1l0-.06c-3-6.51-16.76-9.8-25.62-12.56l.26.17-5.13,13-10.26-7.34-10.56,7.34-4.72-12.81c-7,2.37-16.56,4.51-21.69,8.31a5.14,5.14,0,0,0-2.9,3.22,6.07,6.07,0,0,0-.45,1.1l.07.15c0,.09,0,.17-.07.26-2.32,10.43-4.86,33.28-7.54,54.62-.69,5.47,5,7.82,6.85,8.3,3.29.85,6.36,1.49,9.51,2v0c2.63.53,5.67,1,9,1.31l1,.14v0q2,.2,4.21.36c5.16.41,10.54.63,15.94.66h2.6c6.86,0,13.68-.36,20-1h0l.37,0c1.11-.11,2.2-.23,3.28-.36l0-.07a100.49,100.49,0,0,0,16.67-3.25C265.58,195.95,271.73,193.46,271.12,188.67Z"/><path class="cls-3" d="M51.35,320h-7.9V292.9h8.23c9.83,0,15,5.39,15,13.33C66.7,314.34,60.93,320,51.35,320Zm.21-22.92H48.42v18.72h3.17c7.12,0,9.79-4.49,9.79-9.51C61.39,300.88,58.14,297.1,51.55,297.1Z"/><path class="cls-3" d="M70.93,320V292.9H86l-1.36,4.16H75.91v7h8.77v4.16H75.91v7.61H86V320Z"/><path class="cls-3" d="M90.48,320V292.9h5v22.92h9.71V320Z"/><path class="cls-3" d="M108.26,320V292.9h15.1L122,297.06h-8.77v7H122v4.16h-8.77v7.61h10.12V320Z"/><path class="cls-3" d="M140.23,320.43c-8.48,0-13.7-6-13.7-13.66,0-8.07,6-14.12,15.1-14.12a23,23,0,0,1,8,1.4l-.08,4.65a16.05,16.05,0,0,0-7.41-1.93c-7.12,0-10.16,4.36-10.16,9.59,0,5.68,3.58,10,9.51,10a10.68,10.68,0,0,0,4.28-.74v-9.22h5v11.52A22.11,22.11,0,0,1,140.23,320.43Z"/><path class="cls-3" d="M173.19,320l-2.67-6.79h-9.67L158.34,320h-4.9L164,292.78h3.62L178.5,320Zm-6.42-17.08a28.62,28.62,0,0,1-1-3.37h0a21.58,21.58,0,0,1-1,3.29l-2.35,6.3H169Z"/><path class="cls-3" d="M196.77,297.06h-7.41v23h-5v-23h-7.86V292.9H198Z"/><path class="cls-3" d="M200.8,320V292.9h15.1l-1.36,4.16h-8.77v7h8.77v4.16h-8.77v7.61H215.9V320Z"/><path class="cls-3" d="M230.14,320V292.9h5v22.92h9.71V320Z"/><path class="cls-3" d="M247.92,320V292.9h5V320Z"/><path class="cls-3" d="M265.41,320.43a14.48,14.48,0,0,1-8.35-2.47l2-3.66a10.78,10.78,0,0,0,6.13,2.06c2.1,0,4.49-.86,4.49-3.13,0-3.87-6.58-4.57-9.88-8.27A7,7,0,0,1,258,300.1c0-4,3.17-7.45,8.85-7.45a14,14,0,0,1,6.67,1.52l-.08,4.44a13,13,0,0,0-6.34-1.89c-2.18,0-3.91.95-3.91,2.76,0,5,11.73,4.73,11.73,13.17C275,317.43,270.76,320.43,265.41,320.43Z"/><path class="cls-3" d="M297.17,297.06h-7.41v23h-5v-23h-7.86V292.9h21.48Z"/></svg>