<svg id="Layer_1" data-name="Layer 1" xmlns="http://www.w3.org/2000/svg" viewBox="0 0 345.99 345.99"><defs><style>.cls-1{opacity:0.37;}.cls-2{fill:#fff;}</style></defs><title>icon</title><g class="cls-1"><rect width="345.99" height="345.99" rx="28.69" ry="28.69"/></g><path class="cls-2" d="M129.85,320V292.9h5V320Z"/><path class="cls-2" d="M160.22,320,148,304.14c-1.15-1.52-1.93-2.55-2.67-3.7h-.08c.08.91.12,2.35.12,3.62v16h-5V292.9h5.06l11.81,15.27A36.22,36.22,0,0,1,159.9,312H160c-.08-1.19-.08-2.76-.08-4V292.9h4.94V320Z"/><path class="cls-2" d="M184.13,297.06h-8.81v7.16H184l0,4.12h-8.72V320h-5V292.9h15.14Z"/><path class="cls-2" d="M212.11,316.52a15,15,0,0,1-19.55.58,13.6,13.6,0,0,1-4.28-10.37,14.18,14.18,0,0,1,3.91-10.12,14.77,14.77,0,0,1,20.37.25,15.12,15.12,0,0,1-.45,19.67Zm-10-19.71c-5.06,0-8.6,3.66-8.6,9.75s3.54,9.79,8.6,9.79,8.56-3.66,8.56-9.79C210.68,300.64,207.3,296.81,202.11,296.81Z"/><g id="QHJa1z"><path class="cls-2" d="M256.31,145.53a87,87,0,1,1-85.57-87A87.13,87.13,0,0,1,256.31,145.53Zm-13.31,0a73.72,73.72,0,0,0-147.45-.19c0,40.69,32.93,73.82,73.47,73.85A73.73,73.73,0,0,0,243,145.57Z"/><path class="cls-2" d="M142.58,140.23v-6.58l40.91-1.47v1.39q0,26.58,0,53.16c0,3.48,1.21,4.91,4.69,5.25,2.15.21,4.31.18,6.47.26l1.3.06V199H143.85v-6.75c.79,0,1.58,0,2.37,0,2,0,4,0,6-.19,3.34-.33,4.71-1.92,4.78-5.3,0-1.71,0-3.42,0-5.13q0-17.68,0-35.37c0-3.32-1.14-5-4.43-5.57a51.26,51.26,0,0,0-7-.43C144.61,140.19,143.64,140.23,142.58,140.23Z"/><path class="cls-2" d="M182.63,107A15,15,0,1,1,167.72,92,15.1,15.1,0,0,1,182.63,107Z"/></g></svg>