<svg id="Layer_1" data-name="Layer 1" xmlns="http://www.w3.org/2000/svg" viewBox="0 0 345.99 345.99"><defs><style>.cls-1{opacity:0.37;}.cls-2{fill:#fff;}</style></defs><title>icon</title><g class="cls-1"><rect width="345.99" height="345.99" rx="28.69" ry="28.69"/></g><path class="cls-2" d="M64.27,320,52,304.13c-1.15-1.52-1.93-2.55-2.67-3.7h-.08c.08.91.12,2.35.12,3.62v16h-5V292.9h5.06l11.81,15.27A36.12,36.12,0,0,1,63.94,312H64c-.08-1.19-.08-2.76-.08-4V292.9h4.94V320Z"/><path class="cls-2" d="M74.39,320V292.9h15.1l-1.36,4.16H79.37v7h8.77v4.16H79.37v7.61H89.49V320Z"/><path class="cls-2" d="M112.09,297.06h-7.41v23h-5v-23H91.8V292.9h21.48Z"/><path class="cls-2" d="M142.87,320.18h-4.12l-4.32-12a35.35,35.35,0,0,1-1.28-3.87H133a38.15,38.15,0,0,1-1.23,3.83l-4.4,12h-4l-9.67-27.29h5.51l5.31,16.34c.41,1.28.74,2.47,1.07,3.79h.12c.33-1.23.74-2.51,1.19-3.75L130.81,298,129,292.9h5l5.51,16c.54,1.48,1,2.72,1.36,4H141c.33-1.32.62-2.51,1.07-4l5-16h5.1Z"/><path class="cls-2" d="M176.69,316.52a15,15,0,0,1-19.55.58,13.6,13.6,0,0,1-4.28-10.37,14.18,14.18,0,0,1,3.91-10.12,14.77,14.77,0,0,1,20.37.25,15.12,15.12,0,0,1-.45,19.67Zm-10-19.71c-5.06,0-8.6,3.66-8.6,9.75s3.54,9.79,8.6,9.79,8.56-3.66,8.56-9.79C175.25,300.64,171.87,296.81,166.69,296.81Z"/><path class="cls-2" d="M199.19,320c-4.2-7-6.09-10.37-7.12-10.7h-2.3V320h-5V292.9h7.33c7,0,9.67,3.5,9.67,7.65a7.77,7.77,0,0,1-5,7.12v0c1.24.7,4,5.39,8.11,12.3Zm-7-22.92h-2.47v8.44h2.51a4.37,4.37,0,0,0,4.49-4.4C196.77,298.91,195.32,297.1,192.24,297.1Z"/><path class="cls-2" d="M222.65,320,213,308.17h-.08V320h-5V292.9h4.94v11.56H213L222.2,293H228l-10.78,13,11.52,14Z"/><path class="cls-2" d="M231.74,320V292.9h5V320Z"/><path class="cls-2" d="M262.11,320l-12.26-15.88c-1.15-1.52-1.93-2.55-2.67-3.7h-.08c.08.91.12,2.35.12,3.62v16h-5V292.9h5.06l11.81,15.27a36.12,36.12,0,0,1,2.67,3.79h.08c-.08-1.19-.08-2.76-.08-4V292.9h4.94V320Z"/><path class="cls-2" d="M284.66,320.43c-8.48,0-13.7-6-13.7-13.66,0-8.07,6-14.12,15.1-14.12a23,23,0,0,1,8,1.4L294,298.7a16.05,16.05,0,0,0-7.41-1.93c-7.12,0-10.16,4.36-10.16,9.59,0,5.68,3.58,10,9.51,10a10.68,10.68,0,0,0,4.28-.74v-9.22h5v11.52A22.11,22.11,0,0,1,284.66,320.43Z"/><path class="cls-2" d="M237.54,69.56a46.44,46.44,0,0,0-36.85,18.19l-19.76-11a37.84,37.84,0,1,0-5.3,8.09L195.6,96a46.4,46.4,0,0,0,5.73,49.23l-22.12,20.09a55.65,55.65,0,1,0,6.09,7.51l22.84-20.74a46.49,46.49,0,1,0,29.4-82.5Zm-77.35,19c.74-3.13-.26-7-.26-10.32a12.93,12.93,0,0,0-6.82-11.4,12.93,12.93,0,1,0-12.23,0,12.93,12.93,0,0,0-6.82,11.4c0,3.39-.89,7.28,0,10.44a31.15,31.15,0,1,1,26.15-.11Zm-.26,156.63c.1-4.1-.83-8.59-.83-12.63a20.29,20.29,0,0,0-10.69-17.88,20.29,20.29,0,1,0-19.2,0,20.29,20.29,0,0,0-10.69,17.88c0,4-.81,8.55-.59,12.65a46.28,46.28,0,1,1,42,0ZM253.55,151c.92-3.83-.31-8.54-.31-12.64a15.78,15.78,0,0,0-8.32-13.91,15.79,15.79,0,1,0-14.92,0,15.78,15.78,0,0,0-8.32,13.91c0,4.12-1.07,8.85,0,12.69a38.48,38.48,0,1,1,31.91-.05Z"/></svg>