<svg id="Layer_1" data-name="Layer 1" xmlns="http://www.w3.org/2000/svg" viewBox="0 0 345.99 345.99"><defs><style>.cls-1{opacity:0.37;}.cls-2{fill:#fff;}</style></defs><title>icon</title><g class="cls-1"><rect width="345.99" height="345.99" rx="28.69" ry="28.69"/></g><path class="cls-2" d="M114.48,310.55h-1.36V320h-5V292.9h7c5.88,0,9.75,3,9.75,8.72C124.85,305.41,122.17,310.55,114.48,310.55Zm.12-13.46h-1.48v9.55h1.56c3.54,0,5.14-1.89,5.14-4.9C119.83,299.11,118.1,297.1,114.6,297.1Z"/><path class="cls-2" d="M128.8,320V292.9h5v22.92h9.71V320Z"/><path class="cls-2" d="M163.94,320l-2.67-6.79h-9.67L149.08,320h-4.9l10.54-27.24h3.62L169.25,320Zm-6.42-17.08a28.62,28.62,0,0,1-1-3.37h0a21.58,21.58,0,0,1-1,3.29l-2.35,6.3h6.58Z"/><path class="cls-2" d="M183.72,320.43c-8.64,0-13.66-6-13.66-13.7s5.76-14.08,14.69-14.08a15,15,0,0,1,7,1.48l0,4.53a12.81,12.81,0,0,0-6.87-1.93c-6.3,0-9.42,4.57-9.42,9.67,0,5.47,3.46,9.71,9.05,9.71a13.7,13.7,0,0,0,6.67-1.81l1.36,3.58A16.61,16.61,0,0,1,183.72,320.43Z"/><path class="cls-2" d="M196.35,320V292.9h15.1l-1.36,4.16h-8.77v7h8.77v4.16h-8.77v7.61h10.12V320Z"/><path class="cls-2" d="M222.89,320.43a14.48,14.48,0,0,1-8.35-2.47l2-3.66a10.78,10.78,0,0,0,6.13,2.06c2.1,0,4.49-.86,4.49-3.13,0-3.87-6.58-4.57-9.88-8.27a7,7,0,0,1-1.77-4.86c0-4,3.17-7.45,8.85-7.45a14,14,0,0,1,6.67,1.52l-.08,4.44a13,13,0,0,0-6.34-1.89c-2.18,0-3.91.95-3.91,2.76,0,5,11.73,4.73,11.73,13.17C232.44,317.43,228.24,320.43,222.89,320.43Z"/><path class="cls-2" d="M177,63.74a53.5,53.5,0,0,0-53.5,53.5c0,29.54,53.5,111.24,53.5,111.24s53.5-81.7,53.5-111.24A53.5,53.5,0,0,0,177,63.74Zm.78,84.1a30.91,30.91,0,1,1,30.91-30.91A30.91,30.91,0,0,1,177.76,147.84Z"/></svg>