<svg id="Layer_1" data-name="Layer 1" xmlns="http://www.w3.org/2000/svg" viewBox="0 0 345.99 345.99"><defs><style>.cls-1{opacity:0.37;}.cls-2{fill:#fff;}.cls-3,.cls-4{fill:none;stroke:#fff;stroke-miterlimit:10;}.cls-3{stroke-width:9.56px;}.cls-4{stroke-width:5.74px;}</style></defs><title>icon</title><g class="cls-1"><rect width="345.99" height="345.99" rx="28.69" ry="28.69"/></g><path class="cls-2" d="M57.94,306.06H56.58v9.46h-5V288.4h7c5.88,0,9.75,3,9.75,8.72C68.31,300.92,65.63,306.06,57.94,306.06Zm.12-13.46H56.58v9.55h1.56c3.54,0,5.14-1.89,5.14-4.9C63.28,294.62,61.56,292.6,58.06,292.6Z"/><path class="cls-2" d="M86.66,315.52c-4.2-7-6.09-10.37-7.12-10.7h-2.3v10.7h-5V288.4h7.33c7,0,9.67,3.5,9.67,7.65a7.77,7.77,0,0,1-5,7.12v0c1.24.7,4,5.39,8.11,12.3Zm-7-22.92H77.23V301h2.51a4.37,4.37,0,0,0,4.49-4.4C84.23,294.41,82.79,292.6,79.7,292.6Z"/><path class="cls-2" d="M116.74,312a15,15,0,0,1-19.55.58,13.6,13.6,0,0,1-4.28-10.37,14.18,14.18,0,0,1,3.91-10.12,14.77,14.77,0,0,1,20.37.25,15.12,15.12,0,0,1-.45,19.67Zm-10-19.71c-5.06,0-8.6,3.66-8.6,9.75s3.54,9.79,8.6,9.79,8.56-3.66,8.56-9.79C115.3,296.14,111.92,292.31,106.74,292.31Z"/><path class="cls-2" d="M137.27,315.94c-8.48,0-13.7-6-13.7-13.66,0-8.07,6-14.12,15.1-14.12a23,23,0,0,1,8,1.4l-.08,4.65a16.05,16.05,0,0,0-7.41-1.93c-7.12,0-10.16,4.36-10.16,9.59,0,5.68,3.58,10,9.51,10a10.68,10.68,0,0,0,4.28-.74v-9.22h5v11.52A22.11,22.11,0,0,1,137.27,315.94Z"/><path class="cls-2" d="M167.27,315.52c-4.2-7-6.09-10.37-7.12-10.7h-2.3v10.7h-5V288.4h7.33c7,0,9.67,3.5,9.67,7.65a7.77,7.77,0,0,1-5,7.12v0c1.24.7,4,5.39,8.11,12.3Zm-7-22.92h-2.47V301h2.51a4.37,4.37,0,0,0,4.49-4.4C164.84,294.41,163.4,292.6,160.32,292.6Z"/><path class="cls-2" d="M193.4,315.52l-2.67-6.79h-9.67l-2.51,6.79h-4.9l10.54-27.24h3.62l10.91,27.24ZM187,298.45a28.62,28.62,0,0,1-1-3.37h0a21.58,21.58,0,0,1-1,3.29l-2.35,6.3h6.58Z"/><path class="cls-2" d="M224.14,315.52V299.39c0-1,0-1.85.08-2.92h0a20,20,0,0,1-1.65,2.8L217,308h-2.47l-6.09-8.85a15.16,15.16,0,0,1-1.65-2.67h-.08c.08,1.11.08,2,.08,2.8v16.26h-5V288.4h4.65l7.49,10.86a28.62,28.62,0,0,1,1.81,2.88h.08a24.28,24.28,0,0,1,1.69-3l6.91-10.74h4.69v27.12Z"/><path class="cls-2" d="M256.94,315.52V299.39c0-1,0-1.85.08-2.92h0a20,20,0,0,1-1.65,2.8L249.78,308h-2.47l-6.09-8.85a15.16,15.16,0,0,1-1.65-2.67h-.08c.08,1.11.08,2,.08,2.8v16.26h-5V288.4h4.65l7.49,10.86a28.62,28.62,0,0,1,1.81,2.88h.08a24.28,24.28,0,0,1,1.69-3l6.91-10.74h4.69v27.12Z"/><path class="cls-2" d="M267.39,315.52V288.4h15.1l-1.36,4.16h-8.77v7h8.77v4.16h-8.77v7.61h10.12v4.16Z"/><circle class="cls-3" cx="175.29" cy="147.73" r="84.81"/><polyline class="cls-4" points="174.63 91 175.29 147.73 215.84 173.9"/></svg>