<svg id="Layer_1" data-name="Layer 1" xmlns="http://www.w3.org/2000/svg" viewBox="0 0 345.99 345.99"><defs><style>.cls-1{opacity:0.37;}.cls-2{fill:#fff;}</style></defs><title>icon</title><g class="cls-1"><rect width="345.99" height="345.99" rx="28.69" ry="28.69"/></g><path class="cls-2" d="M55.07,320c-4.2-7-6.09-10.37-7.12-10.7h-2.3V320h-5V292.9H48c7,0,9.67,3.5,9.67,7.65a7.77,7.77,0,0,1-5,7.12v0c1.24.7,4,5.39,8.11,12.3Zm-7-22.92H45.65v8.44h2.51a4.38,4.38,0,0,0,4.49-4.4C52.64,298.91,51.2,297.1,48.12,297.1Z"/><path class="cls-2" d="M63.83,320V292.9h15.1l-1.36,4.16H68.81v7h8.77v4.16H68.81v7.61H78.94V320Z"/><path class="cls-2" d="M95.81,320.43c-8.48,0-13.7-6-13.7-13.66,0-8.07,6-14.12,15.1-14.12a23,23,0,0,1,8,1.4l-.08,4.65a16,16,0,0,0-7.41-1.93c-7.12,0-10.16,4.36-10.16,9.59,0,5.68,3.58,10,9.51,10a10.68,10.68,0,0,0,4.28-.74v-9.22h5v11.52A22.11,22.11,0,0,1,95.81,320.43Z"/><path class="cls-2" d="M111.4,320V292.9h5V320Z"/><path class="cls-2" d="M128.89,320.43a14.48,14.48,0,0,1-8.35-2.47l2-3.66a10.78,10.78,0,0,0,6.13,2.06c2.1,0,4.49-.86,4.49-3.13,0-3.87-6.58-4.57-9.88-8.27a7,7,0,0,1-1.77-4.86c0-4,3.17-7.45,8.85-7.45a14,14,0,0,1,6.67,1.52l-.08,4.44a13,13,0,0,0-6.34-1.89c-2.18,0-3.91.95-3.91,2.76,0,5,11.73,4.73,11.73,13.17C138.44,317.43,134.24,320.43,128.89,320.43Z"/><path class="cls-2" d="M160.66,297.06h-7.41v23h-5v-23h-7.86V292.9h21.48Z"/><path class="cls-2" d="M179.1,320c-4.2-7-6.09-10.37-7.12-10.7h-2.3V320h-5V292.9H172c7,0,9.67,3.5,9.67,7.65a7.77,7.77,0,0,1-5,7.12v0c1.24.7,4,5.39,8.11,12.3Zm-7-22.92h-2.47v8.44h2.51a4.38,4.38,0,0,0,4.49-4.4C176.67,298.91,175.23,297.1,172.14,297.1Z"/><path class="cls-2" d="M205.23,320l-2.67-6.79h-9.67L190.37,320h-4.9L196,292.78h3.62L210.54,320Zm-6.42-17.08a28.62,28.62,0,0,1-1-3.37h0a21.58,21.58,0,0,1-1,3.29l-2.35,6.3H201Z"/><path class="cls-2" d="M228.8,297.06H221.4v23h-5v-23h-7.86V292.9H230Z"/><path class="cls-2" d="M232.84,320V292.9h5V320Z"/><path class="cls-2" d="M265.88,316.52a15,15,0,0,1-19.55.58,13.6,13.6,0,0,1-4.28-10.37A14.18,14.18,0,0,1,246,296.6a14.77,14.77,0,0,1,20.37.25,15.12,15.12,0,0,1-.45,19.67Zm-10-19.71c-5.06,0-8.6,3.66-8.6,9.75s3.54,9.79,8.6,9.79,8.56-3.66,8.56-9.79C264.44,300.64,261.07,296.81,255.88,296.81Z"/><path class="cls-2" d="M293.86,320,281.6,304.14c-1.15-1.52-1.93-2.55-2.67-3.7h-.08c.08.91.12,2.35.12,3.62v16h-5V292.9H279l11.81,15.27a36.22,36.22,0,0,1,2.67,3.79h.08c-.08-1.19-.08-2.76-.08-4V292.9h4.94V320Z"/><path class="cls-2" d="M99.06,68.78c3.85-11,11.86-14.86,23.19-14.75,34.15.31,68.3.1,102.45.12,15.23,0,21.29,7.15,22.54,22.34.93,11.32-7.75,14.74-14.16,21.05q0-8,0-16c0-2.33-.08-4.67,0-7,.19-4.72-2.21-6.6-6.71-6.57-10.83.06-21.66,0-32.48,0h-73c-7,0-8,1-8,8.13q0,71.71,0,143.43c0,7,1.1,8.08,8.12,8.08q52,0,103.95,0c6.84,0,8.11-1.28,8.11-8.18,0-14.83.14-29.65-.09-44.48a11.48,11.48,0,0,1,4-9.55c3-2.77,5.28-6.32,7.88-9.53l1.83,1.39c.09,1.4.27,2.81.27,4.21q0,29.49,0,59c0,13.22-7.5,20.91-20.67,20.94-35.48.08-71,0-106.45.06-10.5,0-17.24-4.93-20.75-14.64Z"/><path class="cls-2" d="M299.06,86.78l-80.85,78c-1.42,1.37-2.89,2.69-4.17,3.88L197.34,152l86.47-83.35,15.25,17.16Z"/><path class="cls-2" d="M124.1,124.51V81H222c0,9,.07,18.12-.09,27.22,0,1.08-1.16,2.29-2,3.2-12.63,13.09-12.64,13.08-30.86,13.08H124.1Zm13.83-14.16h69.94V94.89H137.93Z"/><path class="cls-2" d="M124.3,201.85h97.31v13H124.3Z"/><path class="cls-2" d="M172.74,141.26v13.26H124.23V141.26Z"/><path class="cls-2" d="M124.2,185.91V173h48.53v13Z"/><path class="cls-2" d="M207.87,174.72l-24.68,8.44,8.58-24.64Z"/></svg>