<svg id="Layer_1" data-name="Layer 1" xmlns="http://www.w3.org/2000/svg" viewBox="0 0 345.99 345.99"><defs><style>.cls-1{opacity:0.37;}.cls-2{fill:#fff;}</style></defs><title>icon</title><g class="cls-1"><rect width="345.99" height="345.99" rx="28.69" ry="28.69"/></g><path class="cls-2" d="M92.74,320.43A14.48,14.48,0,0,1,84.39,318l2-3.66a10.78,10.78,0,0,0,6.13,2.06c2.1,0,4.49-.86,4.49-3.13,0-3.87-6.58-4.57-9.88-8.27a7,7,0,0,1-1.77-4.86c0-4,3.17-7.45,8.85-7.45a14,14,0,0,1,6.67,1.52l-.08,4.44a13,13,0,0,0-6.34-1.89c-2.18,0-3.91.95-3.91,2.76,0,5,11.73,4.73,11.73,13.17C102.29,317.43,98.09,320.43,92.74,320.43Z"/><path class="cls-2" d="M106.36,320V292.9h15.1l-1.36,4.16h-8.77v7h8.77v4.16h-8.77v7.61h10.12V320Z"/><path class="cls-2" d="M132.9,320.43a14.48,14.48,0,0,1-8.35-2.47l2-3.66a10.78,10.78,0,0,0,6.13,2.06c2.1,0,4.49-.86,4.49-3.13,0-3.87-6.58-4.57-9.88-8.27a7,7,0,0,1-1.77-4.86c0-4,3.17-7.45,8.85-7.45a14,14,0,0,1,6.67,1.52l-.08,4.44a13,13,0,0,0-6.34-1.89c-2.18,0-3.91.95-3.91,2.76,0,5,11.73,4.73,11.73,13.17C142.45,317.43,138.25,320.43,132.9,320.43Z"/><path class="cls-2" d="M153.52,320.43a14.48,14.48,0,0,1-8.35-2.47l2-3.66a10.78,10.78,0,0,0,6.13,2.06c2.1,0,4.49-.86,4.49-3.13,0-3.87-6.58-4.57-9.88-8.27a7,7,0,0,1-1.77-4.86c0-4,3.17-7.45,8.85-7.45a14,14,0,0,1,6.67,1.52l-.08,4.44a13,13,0,0,0-6.34-1.89c-2.18,0-3.91.95-3.91,2.76,0,5,11.73,4.73,11.73,13.17C163.07,317.43,158.87,320.43,153.52,320.43Z"/><path class="cls-2" d="M167.14,320V292.9h5V320Z"/><path class="cls-2" d="M200.19,316.52a15,15,0,0,1-19.55.58,13.6,13.6,0,0,1-4.28-10.37,14.18,14.18,0,0,1,3.91-10.12,14.77,14.77,0,0,1,20.37.25,15.12,15.12,0,0,1-.45,19.67Zm-10-19.71c-5.06,0-8.6,3.66-8.6,9.75s3.54,9.79,8.6,9.79,8.56-3.66,8.56-9.79C198.75,300.64,195.37,296.81,190.19,296.81Z"/><path class="cls-2" d="M228.17,320,215.9,304.13c-1.15-1.52-1.93-2.55-2.67-3.7h-.08c.08.91.12,2.35.12,3.62v16h-5V292.9h5.06l11.81,15.27a36.12,36.12,0,0,1,2.67,3.79h.08c-.08-1.19-.08-2.76-.08-4V292.9h4.94V320Z"/><path class="cls-2" d="M245.28,320.43a14.48,14.48,0,0,1-8.35-2.47l2-3.66a10.78,10.78,0,0,0,6.13,2.06c2.1,0,4.49-.86,4.49-3.13,0-3.87-6.58-4.57-9.88-8.27a7,7,0,0,1-1.77-4.86c0-4,3.17-7.45,8.85-7.45a14,14,0,0,1,6.67,1.52l-.08,4.44a13,13,0,0,0-6.34-1.89c-2.18,0-3.91.95-3.91,2.76,0,5,11.73,4.73,11.73,13.17C254.83,317.43,250.64,320.43,245.28,320.43Z"/><path class="cls-2" d="M257.76,61.39H79.12A15.79,15.79,0,0,0,63.37,77.45V178.3c0,8.87,6.87,17.1,15.74,17.1H212.9l49.78,36-18.34-36h13.43c8.87,0,17.61-8.23,17.61-17.1V77.45C275.37,68.58,266.63,61.39,257.76,61.39Z"/></svg>